<svg width="202" height="349" viewBox="0 0 202 349" fill="none" xmlns="http://www.w3.org/2000/svg">
<path d="M117.66 111.14V122.85H114.7L104.54 105.84C103.99 104.91 103.13 104.19 102.11 103.84C100.9 103.43 99.6803 103.05 98.4303 102.7C97.8303 102.52 97.2303 102.33 96.5903 102.19C94.6503 101.68 92.6703 101.27 90.6903 100.9C89.6803 100.72 88.6603 100.58 87.6503 100.44C86.8203 100.35 86.0403 100.21 85.2103 100.16C84.2403 100.07 83.2703 99.98 82.2603 99.93C81.7503 99.88 81.2903 99.84 80.7803 99.84C79.6303 99.79 78.4703 99.75 77.3203 99.75C34.7403 99.74 0.0703125 134.37 0.0703125 176.97C0.0703125 204.77 14.8703 229.21 36.9603 242.81C48.7203 250 62.5503 254.2 77.3003 254.2C113.54 254.2 144.02 229.12 152.27 195.41C153.47 190.62 154.18 185.64 154.42 180.53L154.54 176.8V95.86C154.54 93.31 152.48 91.25 149.93 91.25H122.27C119.72 91.25 117.66 93.31 117.66 95.86V111.13V111.14ZM70.4903 216.75C53.7603 214 40.2603 200.51 37.5103 183.77C32.9803 156.16 56.6403 132.61 84.1703 137.19C100.84 139.96 114.29 153.41 117.06 170.08C121.64 197.61 98.0903 221.28 70.4803 216.74L70.4903 216.75Z" fill="#60D812"/>
<path d="M135.881 43.48C147.887 43.48 157.621 33.7467 157.621 21.74C157.621 9.73333 147.887 0 135.881 0C123.874 0 114.141 9.73333 114.141 21.74C114.141 33.7467 123.874 43.48 135.881 43.48Z" fill="#60D812"/>
<path d="M92.3963 86.9702C104.403 86.9702 114.136 77.2369 114.136 65.2302C114.136 53.2236 104.403 43.4902 92.3963 43.4902C80.3896 43.4902 70.6562 53.2236 70.6562 65.2302C70.6562 77.2369 80.3896 86.9702 92.3963 86.9702Z" fill="#60D812"/>
<path d="M179.365 86.9702C191.372 86.9702 201.105 77.2369 201.105 65.2302C201.105 53.2236 191.372 43.4902 179.365 43.4902C167.358 43.4902 157.625 53.2236 157.625 65.2302C157.625 77.2369 167.358 86.9702 179.365 86.9702Z" fill="#60D812"/>
<path d="M148.518 242.57L120.858 251.43C118.948 252.04 117.658 253.82 117.658 255.82V259.85C117.658 259.85 117.658 259.87 117.658 259.88V283H114.708L107.488 267.75H44.1084C19.6284 267.75 -1.45159 287.43 0.078411 311.77C1.48841 334.19 21.4484 343.7 31.3984 346.04C56.1784 351.62 78.4184 338.51 100.438 342.02C105.428 342.81 112.508 345.83 118.448 348.71C118.478 348.72 118.508 348.74 118.528 348.75C118.738 348.83 118.958 348.89 119.188 348.89C120.178 348.89 120.978 348.08 120.978 347.07C120.978 346.57 120.778 346.12 120.458 345.79C120.458 345.79 120.448 345.78 120.438 345.77C115.178 341.06 108.538 335.82 103.248 333.23C79.4084 321.57 43.3384 327.84 37.4984 317.21C36.6784 315.96 36.1884 314.47 36.1884 312.87V312.54C36.1884 308.18 39.7384 304.63 44.0984 304.63H109.738C134.478 304.63 154.538 284.57 154.538 259.83V246.94C154.538 243.82 151.498 241.6 148.518 242.55V242.57Z" fill="#60D812"/>
</svg>
